PathFileType	4	(X/Y/Z)	Patient4_TMGait_0pt2_02_left_02.trc.trc
DataRate	CameraRate	NumFrames	NumMarkers	Units	OrigDataRate	OrigDataStartFrame	OrigNumFrames
42.813455657492	42.813455657492	5	33	mm	42.813455657492	89	       141
Frame#	Time	R.Midfoot.Superior			Sacral			L.Shoulder			Chest			R.Shoulder			Neck			R.ASIS			L.ASIS			R.Thigh.Superior			R.Thigh.Lateral			R.Thigh.Inferior			R.Patella			L.Thigh.Superior			L.Thigh.Lateral			L.Thigh.Inferior			L.Patella			L.Shank.Superior			L.Shank.Lateral			L.Shank.Inferior			R.Shank.Superior			R.Shank.Lateral			R.Shank.Inferior			R.Heel			R.Midfoot.Lateral			R.Toe			L.Heel			L.Midfoot.Lateral			L.Midfoot.Superior			L.Toe			L.Elbow			L.Wrist			R.Elbow			R.Wrist			
		X1	Y1	Z1	X2	Y2	Z2	X3	Y3	Z3	X4	Y4	Z4	X5	Y5	Z5	X6	Y6	Z6	X7	Y7	Z7	X8	Y8	Z8	X9	Y9	Z9	X10	Y10	Z10	X11	Y11	Z11	X12	Y12	Z12	X13	Y13	Z13	X14	Y14	Z14	X15	Y15	Z15	X16	Y16	Z16	X17	Y17	Z17	X18	Y18	Z18	X19	Y19	Z19	X20	Y20	Z20	X21	Y21	Z21	X22	Y22	Z22	X23	Y23	Z23	X24	Y24	Z24	X25	Y25	Z25	X26	Y26	Z26	X27	Y27	Z27	X28	Y28	Z28	X29	Y29	Z29	X30	Y30	Z30	X31	Y31	Z31	X32	Y32	Z32	X33	Y33	Z33	

89	6.225428571429	996.460997184676	97.314898682707	577.328039201358	757.713327345884	1017.700466788678	425.196403034297	1012.693903059850	1430.680462023227	288.221978933292	1061.729777002170	1358.355646799810	470.450562535884	942.338523660650	1443.668006167227	614.153788169505	948.949466814111	1494.614779436706	433.975190856004	960.267729952781	943.472361835005	583.448041463902	995.082495175119	956.180348838284	311.058690826965	1007.816324521066	743.653394412009	552.016080442122	927.867833304286	634.101305600454	611.599214600421	1008.792637515992	581.857726071886	534.447387399784	1013.307924553882	496.364769389528	543.421815152920	996.062764758022	729.104916232566	335.745875098317	895.550711526010	628.176098760773	259.485557568006	959.520602104381	537.433019920695	326.820256625535	947.138717946615	466.131238726632	329.619120173177	900.474845262966	404.293193144652	316.511918211549	786.917771260987	316.706197009975	258.838648725779	809.168972674962	192.046147613982	321.503195831521	985.866384392221	407.778603273646	554.421053601772	916.306327101378	307.057302060796	623.101792065745	958.037613529794	209.020936151104	564.010445888395	824.679504282790	43.371206031066	546.547082348944	910.093187997062	37.466610211627	618.663580767070	1117.538855366342	45.644584489670	602.334044716586	652.670486326083	55.653700092302	355.118275289217	727.251625266758	44.152683839933	276.709281136474	815.333405216226	98.455399844649	303.260331175305	938.115173475534	37.700594794501	276.056057042404	1163.427335547051	1146.484997686353	134.726446484576	1412.169440040834	1064.844846553600	157.006239299473	752.775342979917	1149.927033952410	696.360827853394	716.880612029263	889.465836681068	703.446491048321	
90	6.248785714286	992.155680617519	97.232855447118	577.346779692043	758.233253539716	1017.755569641655	434.138943135938	1010.344217146434	1430.654451569010	292.028645144253	1062.158853817443	1359.138268597373	473.726093747887	944.529732209312	1444.526042048639	618.904027316909	948.755097407108	1495.013582518894	438.269778142931	962.878243255338	944.231088435958	589.946261922131	994.425860286723	956.283913399245	317.010330873761	1008.950000919453	743.688310246669	557.353629695455	928.538846979499	633.979289619503	616.444313832920	1008.624958735514	581.593458752258	538.696365112897	1012.773123571003	495.628251494449	546.889774448053	995.247462402787	729.082711406831	340.757301783986	894.336660359384	628.786749393272	264.015322068439	959.149479651807	537.374294908126	329.960044712112	946.673945089183	465.748799572238	332.112780109868	899.118766843912	404.548543136082	318.741049833508	784.275801672594	318.540378155841	261.028533572031	806.092588535366	192.864532308984	321.933973900716	984.438403154436	407.320742542222	557.055484008866	914.266728573974	306.574402476481	624.950734832789	954.938741306876	208.721451250285	564.859717126688	820.304946481174	43.567403831198	546.445666018927	905.675290493125	37.559825645367	618.536460316944	1113.156346679240	45.168224970069	602.447570202531	648.518052677528	57.634104088207	354.886577665791	722.993546112862	45.065840479048	276.557052321881	811.623271173655	98.683550956770	302.897417137823	933.688018397888	37.534141448835	275.975318480792	1153.929851640173	1140.039920538557	140.215252993090	1400.097280252768	1049.993214748366	160.575447703991	758.149333318433	1149.482728219094	705.827424750787	727.499414399600	888.427192886747	715.397990299581	
91	6.272142857143	987.819677600592	97.163381016304	577.354682115431	758.785640664444	1017.608765578377	443.169539977446	1007.723313616478	1430.417518510576	295.700595818732	1062.379732028846	1359.857347842979	476.847706517844	946.506028923982	1445.298678621613	623.479403352300	948.366323929604	1495.275131738584	442.397605575195	965.527606939158	944.861141601839	596.451636214655	993.780870078961	956.274492635051	323.062853862746	1010.281750968020	743.684128356412	562.662834255269	929.490956821638	633.724192418115	621.281905024363	1008.742212543307	581.306190818738	542.912710617727	1012.501551748754	494.801587792308	550.385278512687	994.809756125140	729.048672188461	345.824509933066	893.617168377862	629.228605522735	268.649744383278	959.463793765580	537.211354568317	333.145849102059	946.958920877324	465.153701801801	334.589572322786	898.356446731192	404.645008264708	320.975531276158	782.097564169266	320.428177016043	263.255176632714	803.321599780329	193.710745613893	322.325542868064	983.199943385230	406.769063795263	559.719897085771	912.318824848945	306.058322997730	626.788248715524	951.892980696238	208.389465554906	565.720044037104	815.885159956281	43.827803637877	546.316194565832	901.205742757125	37.691618113264	618.391915217366	1108.712329663047	44.678459895583	602.553191146717	644.454227921539	59.879839082737	354.571107615154	718.773738455585	46.091102057547	276.325815673785	808.044328208806	98.872620436865	302.435089446947	929.234382192148	37.320284681313	275.862835350870	1143.234951733959	1132.848088361132	146.111053691880	1385.715570508007	1032.901704551149	164.524865230985	764.229235688814	1148.354893704764	715.182082867450	740.180700274285	886.715176707566	727.264695902180	
92	6.295500000000	983.457157531858	97.104032682731	577.357673922221	759.345791145319	1017.244397676601	452.262897289789	1004.834342217497	1429.930204319522	299.263884993280	1062.387299837933	1360.468992240538	479.843653915170	948.250284716822	1445.942465821107	627.898402360602	947.771606297253	1495.363894432764	446.382287754092	968.178228548508	945.315895935036	602.940107304953	993.116161145372	956.132885256572	329.200341472371	1011.847012958607	743.627818349219	567.896249057886	930.809522979472	633.305133061786	626.084559561963	1009.242992239705	580.985872639373	547.046758957625	1012.613243578491	493.861706101213	553.862148613160	994.808698505112	729.020926934260	350.922767621883	893.489498809831	629.485736725171	273.368211977336	960.574610260827	536.957601848901	336.383809699913	948.124268672136	464.344331496541	337.041935896399	898.319772449205	404.576662252060	323.215606067657	780.514624932804	322.412715603758	265.516753975380	800.935350024508	194.639824427001	322.700284487641	982.243469124912	406.096874235227	562.380789190263	910.551286393293	305.503197841813	628.617842911331	948.941537545716	208.007816179624	566.582070145306	811.421953014175	44.147688259703	546.171698049095	896.689243809613	37.857614738502	618.241836727876	1104.215752517173	44.172268579080	602.656788155795	640.526266510691	62.555628161537	354.201854239070	714.608811866348	47.362178125937	276.037717654476	804.632985609597	99.080961512754	301.893807291153	924.722532944373	37.039273474327	275.717007962938	1131.352524805698	1125.033890388367	152.445373396054	1368.711952409710	1013.638835587387	168.883726564952	771.131925362184	1146.461674301097	724.411443348301	755.161329710375	884.349314562857	738.928790506473	
93	6.318857142857	979.076670351263	97.051124851105	577.362238661109	759.873028631624	1016.647049343083	461.383885528442	1001.692072549802	1429.149001647913	302.750586483919	1062.188332498361	1360.910732481391	482.745322084846	949.770773705127	1446.401259142514	632.190519954759	946.974874995793	1495.236986155184	450.256901850779	970.776913190473	945.539945873112	609.380736729141	992.375223763966	955.833281751287	335.394983937580	1013.653241327707	743.495727357431	573.015791549506	932.534144877227	632.688181517980	630.817048692404	1010.193267958264	580.612598326609	551.058626716256	1013.197589662710	492.783506111367	557.274382153676	995.300989079327	729.033888517232	356.022596073037	894.078358096200	629.547873637692	278.139048720037	962.626464912889	536.648226614291	339.683255650613	950.341778741868	463.339061317057	339.467013023046	899.182722268121	404.348220224701	325.468772928484	779.698396983038	324.559398630141	267.821997541298	799.036730269313	195.734934481792	323.101563347272	981.638389542549	405.277264588191	565.004264272276	909.032376623336	304.897334733775	630.439012652469	946.117535706682	207.559464019209	567.438047948704	806.924095859410	44.516618502617	546.025941709518	892.137340422520	38.048683924941	618.097291062603	1099.681460193234	43.649794876144	602.762702688321	636.804741470085	65.883216126479	353.842193863253	710.529886833778	49.070574220928	275.742858983944	801.439846138301	99.409097799992	301.320507550917	920.122265673834	36.676449171324	275.544989178555	1118.311376118015	1116.741323024097	159.236110656315	1348.795085086588	992.413149228026	173.661875300562	778.969976092876	1143.753518972962	733.512238484555	772.643499631132	881.419399991290	750.265696100964	
